<?xml version="1.0" encoding="UTF-8" standalone="no"?><!DOCTYPE svg PUBLIC "-//W3C//DTD SVG 1.1//EN" "http://www.w3.org/Graphics/SVG/1.1/DTD/svg11.dtd"><svg width="100%" height="100%" viewBox="0 0 1667 1667" version="1.1" xmlns="http://www.w3.org/2000/svg" xmlns:xlink="http://www.w3.org/1999/xlink" xml:space="preserve" xmlns:serif="http://www.serif.com/" style="fill-rule:evenodd;clip-rule:evenodd;stroke-linejoin:round;stroke-miterlimit:2;"><path d="M770.833,1608.33l-325,0c-213.867,0 -387.5,-173.633 -387.5,-387.5l0,-775c0,-213.867 173.633,-387.5 387.5,-387.5l775,0c213.867,0 387.5,173.633 387.5,387.5l0,775c0,68.523 -17.824,132.916 -49.097,188.811l-80.069,-84.644l-145.834,-137.5l-62.5,-104.167l41.667,-187.5l-41.667,-83.333l-83.333,-12.5l-83.333,75l83.333,41.667l-41.667,125l-62.5,125l303.329,404.438c-4.645,2.205 -9.341,4.321 -14.093,6.345l-210.069,-277.45l-108.333,8.333l-133.334,-25l-54.166,91.667l54.166,79.167l112.5,83.333l24.638,70.833l-23.447,0l-17.857,-62.5l-116.667,-87.5l-58.333,-87.5l12.5,-16.666l45.833,-75l-58.333,-45.834l-91.667,-41.666l0,58.333l-83.333,-41.667l-83.334,-62.5l-83.333,41.667l62.5,62.5l104.167,112.5l-83.334,75l20.834,104.167l166.666,66.666Zm154.167,-404.166l-70.833,16.666l58.333,45.834l137.5,25l104.167,-8.334l-91.667,-125l62.5,-125l-54.167,-33.333l-100,8.333l-25,87.5l-66.666,41.667l45.833,66.667Zm-679.313,-707.943l-0,-48.242l124.609,-0l0,114.062c-12.109,11.719 -29.655,22.038 -52.636,30.957c-22.982,8.92 -46.257,13.379 -69.825,13.379c-29.948,0 -56.054,-6.282 -78.32,-18.847c-22.266,-12.566 -38.997,-30.534 -50.195,-53.907c-11.198,-23.372 -16.797,-48.795 -16.797,-76.269c-0,-29.818 6.25,-56.315 18.75,-79.492c12.5,-23.178 30.794,-40.951 54.883,-53.321c18.359,-9.505 41.211,-14.258 68.554,-14.258c35.547,0 63.314,7.455 83.301,22.364c19.987,14.909 32.845,35.514 38.574,61.816l-57.422,10.742c-4.036,-14.062 -11.621,-25.162 -22.753,-33.3c-11.133,-8.138 -25.033,-12.207 -41.7,-12.207c-25.26,-0 -45.345,8.007 -60.254,24.023c-14.908,16.016 -22.363,39.779 -22.363,71.289c0,33.984 7.552,59.473 22.656,76.465c15.105,16.992 34.896,25.488 59.375,25.488c12.11,0 24.252,-2.376 36.426,-7.129c12.175,-4.752 22.624,-10.514 31.348,-17.285l-0,-36.328l-66.211,-0Zm161.865,-0.781c0,-21.875 3.272,-40.235 9.815,-55.078c4.882,-10.938 11.547,-20.752 19.995,-29.444c8.447,-8.691 17.7,-15.136 27.758,-19.336c13.379,-5.664 28.809,-8.496 46.29,-8.496c31.64,0 56.958,9.815 75.952,29.444c18.994,19.628 28.491,46.923 28.491,81.884c-0,34.668 -9.424,61.792 -28.272,81.372c-18.847,19.58 -44.043,29.371 -75.586,29.371c-31.933,-0 -57.324,-9.742 -76.171,-29.224c-18.848,-19.483 -28.272,-46.314 -28.272,-80.493Zm992.09,106.054l-0,-214.746l69.58,0c26.367,0 43.555,1.075 51.563,3.223c12.304,3.223 22.607,10.229 30.908,21.02c8.3,10.791 12.451,24.732 12.451,41.822c-0,13.183 -2.393,24.267 -7.178,33.252c-4.785,8.984 -10.864,16.04 -18.237,21.167c-7.373,5.127 -14.868,8.52 -22.486,10.18c-10.351,2.051 -25.341,3.077 -44.97,3.077l-28.272,-0l0,81.005l-43.359,0Zm-695.166,0l-76.758,-214.746l47.022,0l54.345,158.936l52.588,-158.936l45.996,0l-76.904,214.746l-46.289,0Zm672.168,0l-47.168,0l-18.75,-48.779l-85.84,0l-17.725,48.779l-45.996,0l83.643,-214.746l45.85,0l85.986,214.746Zm-520.361,0l-0,-286.328l86.523,0l51.953,195.313l51.367,-195.313l86.719,0l0,286.328l-53.711,0l0,-225.39l-56.836,225.39l-55.664,0l-56.641,-225.39l0,225.39l-53.71,0Zm-404.053,-107.519c-0,24.316 5.615,42.749 16.846,55.298c11.23,12.549 25.488,18.823 42.773,18.823c17.285,-0 31.47,-6.226 42.554,-18.677c11.084,-12.451 16.626,-31.128 16.626,-56.03c-0,-24.609 -5.396,-42.969 -16.187,-55.078c-10.791,-12.11 -25.122,-18.164 -42.993,-18.164c-17.871,-0 -32.275,6.128 -43.213,18.384c-10.937,12.255 -16.406,30.737 -16.406,55.444Zm844.58,22.558l-29.59,-79.687l-29.004,79.687l58.594,0Zm146.191,-93.457l0,60.938l23.731,-0c17.09,-0 28.515,-1.123 34.277,-3.369c5.762,-2.246 10.278,-5.762 13.55,-10.547c3.271,-4.785 4.907,-10.352 4.907,-16.699c0,-7.813 -2.295,-14.258 -6.885,-19.336c-4.589,-5.078 -10.4,-8.252 -17.431,-9.522c-5.176,-0.976 -15.576,-1.465 -31.201,-1.465l-20.948,0Z" style="fill:#fff;"/></svg>